{"title":"Enrique Iglesias Ft. Romeo Santos - Loco [Music Video] 720p [Sby","uid":8864145,"size":39511896,"categoryP":"video","categoryS":"music_videos","magnet":"?xt=urn:btih:41e486fdb0d0e1b5490098c984bbdf8641ce463f&amp;dn=Enrique+Iglesias+Ft.+Romeo+Santos+-+Loco+%5BMusic+Video%5D+720p+%5BSby&amp;tr=udp%3A%2F%2Ftracker.openbittorrent.com%3A80&amp;tr=udp%3A%2F%2Fopen.demonii.com%3A1337&amp;tr=udp%3A%2F%2Ftracker.coppersurfer.tk%3A6969&amp;tr=udp%3A%2F%2Fexodus.desync.com%3A6969","seeders":2,"leechers":0,"uploader":"Sbyky","files":-1,"time":1377855369,"description":"[IMG]http://yuq.me/users/18/139/M2hZOpdoGn.png[/IMG]\n\nGeneral\nComplete name                            : Enrique Iglesias Ft. Romeo Santos - Loco [Music Video] 720p [Sbyky].mp4\nFormat                                   : MPEG-4\nFormat profile                           : Base Media / Version 2\nCodec ID                                 : mp42\nFile size                                : 37.7 MiB\nDuration                                 : 4mn 8s\nOverall bit rate mode                    : Variable\nOverall bit rate                         : 1 271 Kbps\nEncoded date                             : UTC 2013-08-23 18:15:13\nTagged date                              : UTC 2013-08-23 18:15:13\n\nVideo\nID                                       : 1\nFormat                                   : AVC\nFormat/Info                              : Advanced Video Codec\nFormat profile                           : &lt;a class=&quot;__cf_email__&quot; href=&quot;/cdn-cgi/l/email-protection&quot; data-cfemail=&quot;6820010f0028245b4659&quot;&gt;[email&amp;#160;protected]&lt;/a&gt;&lt;script cf-hash='f9e31' type=&quot;text/javascript&quot;&gt;\n/* &lt;![CDATA[ */!function(){try{var t=&quot;currentScript&quot;in document?document.currentScript:function(){for(var t=document.getElementsByTagName(&quot;script&quot;),e=t.length;e--;)if(t[e].getAttribute(&quot;cf-hash&quot;))return t[e]}();if(t&amp;&amp;t.previousSibling){var e,r,n,i,c=t.previousSibling,a=c.getAttribute(&quot;data-cfemail&quot;);if(a){for(e=&quot;&quot;,r=parseInt(a.substr(0,2),16),n=2;a.length-n;n+=2)i=parseInt(a.substr(n,2),16)^r,e+=String.fromCharCode(i);e=document.createTextNode(e),c.parentNode.replaceChild(e,c)}}}catch(u){}}();/* ]]&gt; */&lt;/script&gt;\nFormat settings, CABAC                   : Yes\nFormat settings, ReFrames                : 1 frame\nFormat settings, GOP                     : M=1, N=60\nCodec ID                                 : avc1\nCodec ID/Info                            : Advanced Video Coding\nDuration                                 : 4mn 8s\nBit rate                                 : 1 077 Kbps\nMaximum bit rate                         : 3 570 Kbps\nWidth                                    : 1 280 pixels\nHeight                                   : 720 pixels\nDisplay aspect ratio                     : 16:9\nFrame rate mode                          : Constant\nFrame rate                               : 23.976 fps\nColor space                              : YUV\nChroma subsampling                       : 4:2:0\nBit depth                                : 8 bits\nScan type                                : Progressive\nBits/(Pixel*Frame)                       : 0.049\nStream size                              : 31.9 MiB (85%)\nTagged date                              : UTC 2013-08-23 18:15:15\n\nAudio\nID                                       : 2\nFormat                                   : AAC\nFormat/Info                              : Advanced Audio Codec\nFormat profile                           : LC\nCodec ID                                 : 40\nDuration                                 : 4mn 8s\nBit rate mode                            : Variable\nBit rate                                 : 192 Kbps\nMaximum bit rate                         : 202 Kbps\nChannel(s)                               : 2 channels\nChannel positions                        : Front: L R\nSampling rate                            : 44.1 KHz\nCompression mode                         : Lossy\nStream size                              : 5.69 MiB (15%)\nTitle                                    : IsoMedia File Produced by Google, 5-11-2011\nEncoded date                             : UTC 2013-08-23 18:15:14\nTagged date                              : UTC 2013-08-23 18:15:15\n\nShared By Sbyky\n[IMG]http://yuq.me/users/18/139/0aq32UMZvX.gif[/IMG]\n[IMG]http://yuq.me/users/18/139/bQg62viaEG.gif[/IMG]","torrent":{"xt":"urn:btih:41e486fdb0d0e1b5490098c984bbdf8641ce463f","amp;dn":"Enrique+Iglesias+Ft.+Romeo+Santos+-+Loco+%5BMusic+Video%5D+720p+%5BSby","amp;tr":["udp%3A%2F%2Ftracker.openbittorrent.com%3A80","udp%3A%2F%2Fopen.demonii.com%3A1337","udp%3A%2F%2Ftracker.coppersurfer.tk%3A6969","udp%3A%2F%2Fexodus.desync.com%3A6969"],"infoHash":"41e486fdb0d0e1b5490098c984bbdf8641ce463f","infoHashBuffer":{"type":"Buffer","data":[65,228,134,253,176,208,225,181,73,0,152,201,132,187,223,134,65,206,70,63]},"announce":[],"urlList":[]}}